<?xml version="1.0" encoding="utf-8"?>
<!-- Generator: Adobe Illustrator 22.1.0, SVG Export Plug-In . SVG Version: 6.00 Build 0)  -->
<svg version="1.1" id="Layer_1" xmlns="http://www.w3.org/2000/svg" xmlns:xlink="http://www.w3.org/1999/xlink" x="0px" y="0px"
	 viewBox="0 0 200 200" style="enable-background:new 0 0 200 200;" xml:space="preserve">
<style type="text/css">
	.st0{fill:#D58426;}
</style>
<g id="surface1" transform="translate(0 0.001)">
	<path id="Path_655" class="st0" d="M100.4,73.6C85.8,73.6,74,85.4,74,100c0,14.6,11.8,26.4,26.4,26.4s26.4-11.8,26.4-26.4v0
		C126.7,85.4,114.9,73.6,100.4,73.6z M116,95l-18.9,18.9c-1.6,1.6-4.2,1.6-5.7,0c0,0,0,0,0,0l-7.2-7.2c-1.6-1.6-1.6-4.2,0-5.7
		s4.2-1.6,5.7,0l0,0l4.4,4.4l16-16c1.6-1.6,4.2-1.6,5.7,0C117.6,90.9,117.6,93.5,116,95L116,95L116,95z"/>
	<path id="Path_656" class="st0" d="M159.2,68.3v-0.1c-0.1-1.3-0.1-2.7-0.1-4.3c-0.1-7.7-6.2-13.9-13.8-14.4
		c-15.9-0.9-28.2-6.1-38.8-16.3l-0.1-0.1c-3.4-3.1-8.6-3.1-12,0l-0.1,0.1C83.7,43.5,71.4,48.7,55.5,49.5
		c-7.7,0.5-13.7,6.7-13.8,14.4c0,1.6-0.1,3-0.1,4.3v0.3c-0.3,16.2-0.7,36.5,6.1,54.8c3.6,9.8,9.3,18.7,16.7,26.1
		c9.4,8.8,20.5,15.4,32.7,19.4c0.4,0.2,0.9,0.3,1.3,0.4c1.3,0.3,2.6,0.3,3.9,0c0.5-0.1,0.9-0.2,1.3-0.4c12.2-4,23.4-10.6,32.7-19.4
		c7.5-7.3,13.2-16.2,16.7-26.1C159.9,104.9,159.5,84.6,159.2,68.3z M100.4,134.5c-19.1,0-34.5-15.5-34.5-34.5s15.5-34.5,34.5-34.5
		c19.1,0,34.5,15.5,34.5,34.5C134.9,119.1,119.4,134.5,100.4,134.5L100.4,134.5z"/>
</g>
</svg>
