<?xml version="1.0" encoding="utf-8"?>
<!-- Generator: Adobe Illustrator 22.1.0, SVG Export Plug-In . SVG Version: 6.00 Build 0)  -->
<svg version="1.1" id="Layer_1" xmlns="http://www.w3.org/2000/svg" xmlns:xlink="http://www.w3.org/1999/xlink" x="0px" y="0px"
	 viewBox="0 0 200 200" style="enable-background:new 0 0 200 200;" xml:space="preserve">
<style type="text/css">
	.st0{fill:#D58426;}
</style>
<g id="Group_536" transform="translate(0 0)">
	<path id="Path_654" class="st0" d="M79.3,118.1c-7.4,0-13.4,6-13.4,13.4c0,7.4,6,13.4,13.4,13.4c7.4,0,13.4-6,13.4-13.4
		c0,0,0,0,0,0C92.6,124.1,86.7,118.1,79.3,118.1z M79.3,138.2c-3.7,0-6.7-3-6.7-6.7c0-3.7,3-6.7,6.7-6.7c3.7,0,6.7,3,6.7,6.7
		C86,135.2,83,138.2,79.3,138.2C79.3,138.2,79.3,138.2,79.3,138.2L79.3,138.2z M180,108.2v14.3c0,3.6-2.9,6.4-6.4,6.4l0,0h-6.9
		c-1.4-9.7-10.4-16.3-20-14.9c-7.7,1.1-13.8,7.2-14.9,14.9H96.8c-1.4-9.7-10.4-16.3-20-14.9c-7.7,1.1-13.8,7.2-14.9,14.9h-8.6
		c-3.6,0-6.4-2.9-6.4-6.4l0,0v-14.3H180z M149.2,118.1c-7.4,0-13.4,6-13.4,13.4c0,7.4,6,13.4,13.4,13.4c7.4,0,13.4-6,13.4-13.4
		c0,0,0,0,0,0C162.5,124.1,156.6,118.1,149.2,118.1L149.2,118.1z M149.2,138.2c-3.7,0-6.7-3-6.7-6.7s3-6.7,6.7-6.7s6.7,3,6.7,6.7
		C155.9,135.2,152.9,138.2,149.2,138.2C149.2,138.2,149.2,138.2,149.2,138.2L149.2,138.2z M177.5,93.9l-25.3-25
		c-1.6-1.6-3.8-2.5-6-2.5h-12.8v-4.8c0-3.6-2.9-6.4-6.4-6.4c0,0,0,0,0,0H53.2c-3.6,0-6.4,2.9-6.4,6.4v1l-26.1,3l46.3,6L20,76.3
		l46.7,6.6L20,87l26.7,5v12.7H180V100C180,97.7,179.1,95.5,177.5,93.9L177.5,93.9z M166.4,94.7h-24.5c-0.6,0-1-0.4-1-1c0,0,0,0,0,0
		V74.8c0-0.6,0.4-1,1-1c0,0,0,0,0,0h4.7c0.3,0,0.5,0.1,0.7,0.3L167.1,93c0.4,0.4,0.4,1,0,1.4C167,94.6,166.7,94.7,166.4,94.7
		L166.4,94.7z"/>
</g>
</svg>
