<?xml version="1.0" encoding="utf-8"?>
<!-- Generator: Adobe Illustrator 22.1.0, SVG Export Plug-In . SVG Version: 6.00 Build 0)  -->
<svg version="1.1" id="Layer_1" xmlns="http://www.w3.org/2000/svg" xmlns:xlink="http://www.w3.org/1999/xlink" x="0px" y="0px"
	 viewBox="0 0 200 200" style="enable-background:new 0 0 200 200;" xml:space="preserve">
<style type="text/css">
	.st0{fill:#D58426;}
</style>
<path class="st0" d="M121.4,121.2c-14.3,8.3-31.4,7.4-44.5-0.8c-19.2-12.3-25.5-37.7-14-57.6c11.7-20.1,37.3-27.3,57.6-16.2
	c0.1,0.1,0.2,0.1,0.3,0.2c0.2,0.1,0.3,0.2,0.5,0.3c6.3,3.6,11.7,8.9,15.6,15.6C148.8,83,141.9,109.3,121.4,121.2z M161.9,151.2
	c0,0-16.2-27.9-19.2-32.9c3.3-1,6.8-1.9,8.3-4.4c2.4-4.2-1.9-11.1-0.8-15.7c1.2-4.7,8.1-8.7,8.1-13.4c0-4.6-7.2-10-8.4-14.6
	c-1.2-4.5,3.2-11.5,0.7-15.7c-2.5-4.2-10.6-3.9-14-7.1c-3.5-3.3-3.4-11.5-7.6-13.7c-4.2-2.2-11,2.3-15.7,1.2c-4.6-1.1-8.7-8-13.5-8
	c-4.9,0-12.6,7.9-13.8,8.1c-4.6,1.1-11.5-3.4-15.7-1.2C66.4,36,66.4,44.2,63,47.5c-3.4,3.2-11.5,2.9-14,7.1
	c-2.4,4.2,1.9,11.1,0.8,15.7c-1.1,4.5-8.3,9.1-8.3,14.4c0,4.7,7,8.7,8.1,13.4c1.2,4.5-3.2,11.5-0.7,15.7c1.3,2.3,4.4,3.2,7.4,4.1
	c0.4,0.1,1,0.5,0.6,1.2c-2.1,3.6-18.7,32.3-18.7,32.3c-1.3,2.3-0.2,4.2,2.4,4.4l12.9,0.5c2.6,0.1,6,2,7.4,4.3l6.9,10.9
	c1.4,2.2,3.6,2.2,5-0.1c0,0,19.3-33.3,19.3-33.3c0.4-0.5,0.8-0.4,1-0.2c2.1,1.8,5.1,3.6,7.5,3.6c2.4,0,4.6-1.7,6.8-3.6
	c0.2-0.2,0.6-0.5,0.9,0.2c0,0,19.3,33.1,19.3,33.1c1.3,2.3,3.6,2.3,5,0.1l6.9-11c1.4-2.2,4.7-4.2,7.4-4.3l12.9-0.6
	C162.2,155.4,163.3,153.4,161.9,151.2z"/>
<path class="st0" d="M122.5,81.2l-6,5.9c-1.9,1.8-3,5.4-2.6,8l1.4,8.3c0.4,2.6-1.1,3.7-3.4,2.5l-7.5-3.9c-2.3-1.2-6.1-1.2-8.4,0
	l-7.5,3.9c-2.3,1.2-3.8,0.1-3.4-2.5l1.4-8.3c0.4-2.6-0.7-6.2-2.6-8l-6-5.9c-1.9-1.8-1.3-3.6,1.3-4l8.3-1.2c2.6-0.4,5.6-2.6,6.8-4.9
	l3.7-7.6c1.2-2.3,3-2.3,4.2,0L106,71c1.2,2.3,4.2,4.6,6.8,4.9l8.3,1.2C123.7,77.5,124.3,79.3,122.5,81.2z M118.1,53
	c-0.1,0-0.1-0.1-0.2-0.1c-10.9-6.3-24.7-6.7-36.3,0c-17.2,10-23.1,32.2-13.1,49.4c3.1,5.3,7.2,9.4,12.1,12.5
	c0.4,0.3,0.8,0.5,1.3,0.8c17.2,10,39.4,4.1,49.3-13.1C141.3,85.1,135.4,63,118.1,53z"/>
</svg>
