<?xml version="1.0" encoding="utf-8"?>
<!-- Generator: Adobe Illustrator 22.1.0, SVG Export Plug-In . SVG Version: 6.00 Build 0)  -->
<svg version="1.1" id="Layer_1" xmlns="http://www.w3.org/2000/svg" xmlns:xlink="http://www.w3.org/1999/xlink" x="0px" y="0px"
	 viewBox="0 0 11.1 11.1" style="enable-background:new 0 0 11.1 11.1;" xml:space="preserve">
<style type="text/css">
	.st0{opacity:0.6;}
	.st1{fill:#333333;}
</style>
<g class="st0">
	<path class="st1" d="M5.9,7.4c-0.2-0.2-0.5-0.1-0.7,0l-1.7,2V1.5c0-0.3-0.2-0.5-0.5-0.5c-0.3,0-0.5,0.2-0.5,0.5v7.9l-1.7-2
		c-0.2-0.2-0.5-0.2-0.7,0C0,7.6,0,7.9,0.1,8.1l2.6,2.9c0.2,0.2,0.5,0.2,0.7,0L6,8.1C6.1,7.9,6.1,7.6,5.9,7.4z"/>
	<path class="st1" d="M11,3.1L8.4,0.2c-0.2-0.2-0.5-0.2-0.7,0L5.1,3.1C5,3.2,5,3.6,5.2,3.7c0.3,0.2,0.6,0.1,0.7,0l1.7-2v7.8
		C7.6,9.8,7.8,10,8,10c0.3,0,0.5-0.2,0.5-0.4V1.7l1.7,2c0.2,0.2,0.5,0.2,0.7,0C11.1,3.5,11.1,3.2,11,3.1z"/>
</g>
</svg>
