<?xml version="1.0" encoding="utf-8"?>
<!-- Generator: Adobe Illustrator 22.1.0, SVG Export Plug-In . SVG Version: 6.00 Build 0)  -->
<svg version="1.1" id="Layer_1" xmlns="http://www.w3.org/2000/svg" xmlns:xlink="http://www.w3.org/1999/xlink" x="0px" y="0px"
	 viewBox="0 0 512 512" style="enable-background:new 0 0 512 512;" xml:space="preserve">
<style type="text/css">
	.st0{fill:#E4E4E2;}
	.st1{fill:#834B10;}
	.st2{fill:#CBCBCB;}
	.st3{fill:#DBDBDB;}
	.st4{fill:#985713;}
	.st5{fill:#ED747E;}
	.st6{fill:#5B3726;}
	.st7{fill:#F4B56B;}
	.st8{fill:#744630;}
</style>
<g>
	<path class="st0" d="M60.3,106.6H452v376H60.3V106.6z"/>
	<path class="st1" d="M295.3,106.6h78.3v109.7c0,21.6-17.5,39.2-39.2,39.2c-21.6,0-39.2-17.5-39.2-39.2V106.6z"/>
	<path class="st2" d="M217,106.6h78.3v109.7c0,21.6-17.5,39.2-39.2,39.2c-21.6,0-39.2-17.5-39.2-39.2V106.6z"/>
	<path class="st2" d="M373.7,106.6H452v109.7c0,21.6-17.5,39.2-39.2,39.2c-21.6,0-39.2-17.5-39.2-39.2V106.6z"/>
	<path class="st1" d="M138.6,106.6H217v109.7c0,21.6-17.5,39.2-39.2,39.2c-21.6,0-39.2-17.5-39.2-39.2V106.6z"/>
	<path class="st2" d="M60.3,106.6h78.3v109.7c0,21.6-17.5,39.2-39.2,39.2c-21.6,0-39.2-17.5-39.2-39.2V106.6z"/>
	<path class="st3" d="M60.3,106.6h78.3v101.8H60.3V106.6z"/>
	<path class="st4" d="M138.6,106.6H217v101.8h-78.3V106.6z"/>
	<path class="st3" d="M217,106.6h78.3v101.8H217V106.6z"/>
	<path class="st4" d="M295.3,106.6h78.3v101.8h-78.3V106.6z"/>
	<path class="st3" d="M373.7,106.6H452v101.8h-78.3V106.6z"/>
	<path class="st5" d="M240.5,302.5h172.3v133.2H240.5V302.5z"/>
	<path class="st5" d="M138.6,286.8h15.7c21.6,0,39.2,17.5,39.2,39.2v156.7h-94V326C99.5,304.3,117,286.8,138.6,286.8z"/>
	<path class="st6" d="M234.7,153.6c-2.4,0-4.8-0.2-7.1-0.6c-11.3-1.8-21.4-8.1-28-17.4l-13.7-19.1c-13.6-19.6-8.7-46.4,10.9-60
		c19.1-13.3,45.4-8.9,59.2,9.8l13.7,19.1c13.8,19.4,9.4,46.3-10,60.1C252.4,150.8,243.6,153.6,234.7,153.6L234.7,153.6z M220.9,64
		c-15.1,0-27.4,12.3-27.4,27.4c0,5.7,1.8,11.3,5.1,16l13.7,19.1c8.8,12.3,25.9,15.1,38.3,6.3s15.2-25.9,6.3-38.3l-13.7-19.1
		C238,68.3,229.7,64,220.9,64z"/>
	<path class="st1" d="M240.5,404.3h172.3v31.3H240.5V404.3z"/>
	<path class="st2" d="M283.6,304.1v37.5c0,4.3,3.5,7.8,7.8,7.8c4.3,0,7.8-3.5,7.8-7.8v-37.5c0-0.6-0.2-1.1-0.3-1.6h-15
		C283.7,303,283.6,303.5,283.6,304.1z"/>
	<path class="st2" d="M354.1,304.1v37.5c0,4.3,3.5,7.8,7.8,7.8s7.8-3.5,7.8-7.8v-37.5c-0.1-0.6-0.2-1.1-0.3-1.6h-15
		C354.2,303,354.1,303.5,354.1,304.1z"/>
	<path class="st1" d="M138.6,286.8h15.7c21.6,0,39.2,17.5,39.2,39.2h-94C99.5,304.3,117,286.8,138.6,286.8z"/>
	<path class="st7" d="M358,28.3H138.6v54.8c0,51.9,42,94,93.9,94c33.6,0,64.7-17.9,81.5-47h44c26,0,47-21,47-47v-7.8
		C405,49.3,384,28.3,358,28.3z M354.1,98.8h-28.8c0.9-5.2,1.4-10.4,1.4-15.7V59.6h27.4c10.8,0,19.6,8.8,19.6,19.6
		S364.9,98.8,354.1,98.8z"/>
	<path class="st8" d="M200.4,62.8c15.8-11.3,37.9-7.7,49.2,8.1L263.3,90c11.3,15.8,7.7,37.9-8.1,49.2c-15.8,11.3-37.9,7.7-49.2-8.1
		l-13.7-19.1C180.9,96.1,184.6,74.1,200.4,62.8z"/>
	<path class="st6" d="M256.4,119.9c-1.9-11.6-10.3-21.2-21.6-24.4c-5.9-1.7-10.2-6.9-10.7-13l-1.8-20.8c-0.2-2.1-1.2-4.1-2.9-5.4
		c-4.1,0.2-8.1,1.1-11.8,2.6c-0.7,1.3-1,2.7-0.9,4.1l1.8,20.8c1.1,12.6,9.8,23.2,21.9,26.7c5.5,1.6,9.6,6.2,10.5,11.9l3.3,20.4
		c0.1,0.5,0.3,1,0.5,1.4c3.7-1.1,7.2-2.7,10.4-5c1.4-1,2.6-2.2,3.8-3.4L256.4,119.9z"/>
	<g>
		<path class="st1" d="M130.8,396.5c-1,0-2-0.2-3-0.6c-0.9-0.4-1.8-1-2.6-1.6c-1.5-1.5-2.3-3.5-2.3-5.6c0-2.1,0.8-4.1,2.3-5.6
			l1.2-0.9c0.4-0.3,0.9-0.5,1.4-0.7c0.4-0.2,0.9-0.4,1.4-0.5c1-0.2,2-0.2,3,0c0.5,0.1,1,0.2,1.5,0.5c0.5,0.2,0.9,0.4,1.3,0.7
			c0.5,0.3,0.9,0.6,1.3,0.9c0.7,0.7,1.3,1.6,1.6,2.6c0.4,0.9,0.6,2,0.6,3c0,2.1-0.8,4.1-2.3,5.6
			C134.9,395.7,132.9,396.5,130.8,396.5z"/>
		<path class="st1" d="M291.4,333.8c10.8,0,19.6,8.8,19.6,19.6V373h-39.2v-19.6C271.8,342.6,280.6,333.8,291.4,333.8z"/>
		<path class="st1" d="M361.9,333.8c10.8,0,19.6,8.8,19.6,19.6V373h-39.2v-19.6C342.3,342.6,351.1,333.8,361.9,333.8z"/>
	</g>
</g>
</svg>
