<svg height="512" viewBox="0 0 512 512" width="512" xmlns="http://www.w3.org/2000/svg"><g id="Flat"><rect fill="#8c6439" height="144" rx="72" transform="matrix(0 -1 1 0 16 736)" width="176" x="288" y="288"/><rect fill="#8c6439" height="144" rx="72" transform="matrix(.707 -.707 .707 .707 -74.274 156.686)" width="176" x="64" y="96"/><path d="m455.308 160.384a95.067 95.067 0 0 0 -11.713-41.37l-15.356-28.077a96.025 96.025 0 0 0 -84.29-49.948v-16a112.019 112.019 0 0 1 98.328 58.27l15.356 28.077a110.95 110.95 0 0 1 13.656 48.28z" fill="#ccdce5"/><rect fill="#8c6439" height="144" rx="72" transform="matrix(-.48 -.877 .877 -.48 387.931 532.073)" width="176" x="263.691" y="79.04"/><path d="m165.534 484.594a111.782 111.782 0 0 1 -72.834-74.388l-9.187-30.653a111.041 111.041 0 0 1 -4.038-44.441l15.9 1.776a95.14 95.14 0 0 0 3.463 38.071l9.187 30.653a95.186 95.186 0 0 0 35.162 49.842 96.2 96.2 0 0 0 27.282 13.919z" fill="#ccdce5"/><path d="m199.953 490.072a110.93 110.93 0 0 1 -17.2-1.354l2.49-15.805a94.712 94.712 0 0 0 14.708 1.159z" fill="#ccdce5"/><rect fill="#8c6439" height="144" rx="72" transform="matrix(-.287 -.958 .958 -.287 -95.979 654.021)" width="176" x="107.388" y="290.727"/><g fill="#704a22"><path d="m371.68 447.87a8 8 0 0 1 -4.785-10.252l5.356-14.731a74.826 74.826 0 0 0 4.529-25.687 75.616 75.616 0 0 0 -7.937-33.625 91.546 91.546 0 0 1 -4.131-71.931l5.356-14.729a8 8 0 0 1 10.252-4.785 8 8 0 0 1 4.785 10.252l-5.356 14.731a75.476 75.476 0 0 0 3.407 59.311 91.7 91.7 0 0 1 9.624 40.776 90.778 90.778 0 0 1 -5.493 31.157l-5.355 14.728a8 8 0 0 1 -10.252 4.785z"/><path d="m86.81 227.08a8 8 0 0 1 3.868-10.632l14.21-6.628a75.138 75.138 0 0 0 39.522-44.347 91.556 91.556 0 0 1 47.936-53.792l14.212-6.629a8 8 0 0 1 10.632 3.868 8 8 0 0 1 -3.868 10.632l-14.21 6.628a75.485 75.485 0 0 0 -39.522 44.349 91.138 91.138 0 0 1 -47.937 53.79l-14.211 6.629a8 8 0 0 1 -10.632-3.868z"/><path d="m389.539 230.849a7.982 7.982 0 0 1 -8.5-6.753l-2.461-16.086a75.12 75.12 0 0 0 -31.45-50.4 91.556 91.556 0 0 1 -38.15-61.125l-2.366-15.485a8 8 0 0 1 6.7-9.118 8 8 0 0 1 9.118 6.7l2.37 15.488a75.49 75.49 0 0 0 31.453 50.4 91.111 91.111 0 0 1 38.147 61.117s1.366 9.006 2.432 16.124a7.981 7.981 0 0 1 -7.291 9.138z"/><path d="m216.48 448.14a8 8 0 0 1 -7.527-8.447l.9-15.652c.085-1.52.127-2.946.127-4.351a74.84 74.84 0 0 0 -20.416-51.477 91.6 91.6 0 0 1 -24.621-67.722l.9-15.654a8 8 0 0 1 8.446-7.527 8 8 0 0 1 7.527 8.446l-.9 15.653a75.529 75.529 0 0 0 20.3 55.841 90.779 90.779 0 0 1 24.762 62.44c0 1.706-.05 3.426-.153 5.258l-.9 15.664a8 8 0 0 1 -8.445 7.528z"/></g></g></svg>