<?xml version="1.0"?>
<svg xmlns="http://www.w3.org/2000/svg" id="Layer_1" enable-background="new 0 0 510.876 510.876" height="512px" viewBox="0 0 510.876 510.876" width="512px"><g><path d="m255.438 0c-111.938 0-203.005 114.589-203.005 255.438s91.067 255.438 203.005 255.438 203.005-114.589 203.005-255.438-91.068-255.438-203.005-255.438zm-121.018 416.078c-33.524-42.875-51.987-99.924-51.987-160.64s18.463-117.766 51.987-160.64c22.523-28.804 49.943-48.684 79.666-58.258 35.266 55.776 44.65 103.387 29.518 149.787-7.061 21.651-17.271 41.797-28.082 63.125-10.488 20.692-21.263 41.982-29.111 65.049-8.023-8.047-18.298-13.891-29.955-16.59-8.077-1.871-16.13 3.159-17.997 11.23-1.869 8.071 3.159 16.128 11.229 17.997 12.788 2.961 22.354 13.255 24.37 26.224.287 1.851.717 9.116.518 10.546-5.088 36.451-.147 67.539 15.974 100.436-20.646-10.98-39.692-27.245-56.13-48.266zm99.389 63.029c-32.468-48.606-38.399-86.26-22.71-142.974 7.064-25.536 18.779-48.648 31.182-73.119 10.849-21.404 22.066-43.537 29.845-67.387 16.929-51.911 8.207-106.07-26.656-165.24 3.308-.247 6.63-.387 9.968-.387 8.664 0 17.239.846 25.674 2.495 32.245 59.526 38.437 114.476 19.535 172.434-7.997 24.523-19.46 47.177-31.595 71.16l-.829 1.638c-10.674 21.098-21.711 42.915-28.21 66.406-14.675 53.044 9.444 105.349 28.668 136.078-4.387.437-8.803.665-13.243.665-7.282 0-14.502-.601-21.629-1.769zm142.647-63.029c-21.749 27.814-48.066 47.297-76.611 57.225-.292-.583-.611-1.159-.986-1.714-16.699-24.657-42.793-72.964-29.931-119.457 5.702-20.613 16.054-41.074 26.077-60.886l.816-1.613c12.112-23.938 24.637-48.691 33.348-75.403 2.401-7.362 3.872-15.379 7.719-22.176 5.632-9.953 16.235-16.167 27.671-16.219 8.284-.038 14.97-6.783 14.933-15.067-.037-8.261-6.745-14.933-14.998-14.933-.023 0-.047 0-.069 0-8.13.036-16.041 1.686-23.342 4.704.61-13.789-.063-27.549-2.054-41.402-2.956-20.573-8.774-41.08-17.591-62.004 20.217 10.968 38.877 27.02 55.019 47.664 33.524 42.875 51.987 99.924 51.987 160.64s-18.464 117.767-51.988 160.641z" data-original="#000000" class="active-path" data-old_color="#000000" fill="#374957"/></g> </svg>
