<?xml version="1.0" encoding="utf-8"?>
<!-- Generator: Adobe Illustrator 22.1.0, SVG Export Plug-In . SVG Version: 6.00 Build 0)  -->
<svg version="1.1" id="Layer_1" xmlns="http://www.w3.org/2000/svg" xmlns:xlink="http://www.w3.org/1999/xlink" x="0px" y="0px"
	 viewBox="0 0 512 512" style="enable-background:new 0 0 512 512;" xml:space="preserve">
<style type="text/css">
	.st0{fill:#585123;}
	.st1{fill:#CCDCE5;}
	.st2{fill:#443E1E;}
</style>
<g id="Flat">
	<path class="st0" d="M304,376v-32c0-39.8,32.2-72,72-72l0,0c39.8,0,72,32.2,72,72v32c0,39.8-32.2,72-72,72l0,0
		C336.2,448,304,415.8,304,376z"/>
	<path class="st0" d="M89.8,128.4l22.6-22.6c28.1-28.1,73.7-28.1,101.8,0l0,0c28.1,28.1,28.1,73.7,0,101.8l-22.6,22.6
		c-28.1,28.1-73.7,28.1-101.8,0l0,0C61.6,202.1,61.6,156.5,89.8,128.4z"/>
	<path class="st1" d="M455.3,160.4c-0.7-14.5-4.7-28.7-11.7-41.4l-15.4-28.1c-16.9-30.8-49.2-50-84.3-49.9V25
		c41,0,78.7,22.3,98.3,58.3l15.4,28.1c8.2,14.8,12.9,31.4,13.7,48.3L455.3,160.4z"/>
	<path class="st0" d="M296.1,199.7l-15.4-28.1c-19.1-34.9-6.3-78.6,28.6-97.7l0,0c34.9-19.1,78.6-6.3,97.7,28.6l15.4,28.1
		c19.1,34.9,6.3,78.6-28.6,97.7l0,0C358.9,247.4,315.2,234.6,296.1,199.7z"/>
	<path class="st1" d="M165.5,484.6c-35-11.3-62.3-39.1-72.8-74.4l-9.2-30.7c-4.3-14.4-5.7-29.5-4-44.4l15.9,1.8
		c-1.4,12.8-0.3,25.7,3.5,38.1l9.2,30.7c5.9,20,18.3,37.5,35.2,49.8c8.3,6.1,17.5,10.8,27.3,13.9L165.5,484.6z"/>
	<path class="st1" d="M200,490.1c-5.8,0-11.5-0.5-17.2-1.4l2.5-15.8c4.9,0.8,9.8,1.2,14.7,1.2L200,490.1z"/>
	<path class="st0" d="M131.1,398.7l-9.2-30.7c-11.4-38.1,10.2-78.2,48.3-89.6l0,0c38.1-11.4,78.2,10.2,89.6,48.3l9.2,30.7
		c11.4,38.1-10.2,78.2-48.3,89.6l0,0C182.6,458.5,142.5,436.8,131.1,398.7z"/>
	<g>
		<path class="st2" d="M371.7,447.9c-4.2-1.5-6.3-6.1-4.8-10.3l0,0l5.4-14.7c3-8.2,4.5-16.9,4.5-25.7c0-11.7-2.7-23.2-7.9-33.6
			c-11.2-22.4-12.6-48.4-4.1-71.9l5.4-14.7c1.5-4.2,6.1-6.3,10.3-4.8l0,0c4.2,1.5,6.3,6.1,4.8,10.3l0,0l-5.4,14.7
			c-7,19.4-5.8,40.8,3.4,59.3c6.3,12.7,9.6,26.6,9.6,40.8c0,10.6-1.9,21.2-5.5,31.2l-5.4,14.7C380.4,447.2,375.8,449.4,371.7,447.9
			L371.7,447.9L371.7,447.9z"/>
		<path class="st2" d="M86.8,227.1c-1.9-4-0.1-8.8,3.9-10.6c0,0,0,0,0,0l14.2-6.6c18.7-8.7,33-24.8,39.5-44.3
			c8-23.7,25.3-43.2,47.9-53.8l14.2-6.6c4-1.9,8.8-0.1,10.6,3.9c0,0,0,0,0,0c1.9,4,0.1,8.8-3.9,10.6c0,0,0,0,0,0l-14.2,6.6
			c-18.7,8.8-33,24.8-39.5,44.3c-7.9,23.8-25.2,43.2-47.9,53.8l-14.2,6.6C93.4,232.8,88.7,231.1,86.8,227.1
			C86.8,227.1,86.8,227.1,86.8,227.1z"/>
		<path class="st2" d="M389.5,230.8c-4.2,0.3-7.9-2.6-8.5-6.8l-2.5-16.1c-3.1-20.4-14.5-38.6-31.5-50.4
			c-20.5-14.3-34.3-36.4-38.1-61.1L306.6,81c-0.7-4.4,2.3-8.4,6.7-9.1c0,0,0,0,0,0c4.4-0.7,8.4,2.3,9.1,6.7c0,0,0,0,0,0l2.4,15.5
			c3.2,20.4,14.5,38.6,31.5,50.4c20.6,14.3,34.4,36.4,38.1,61.1c0,0,1.4,9,2.4,16.1c0.7,4.4-2.4,8.4-6.7,9.1
			C389.9,230.8,389.7,230.8,389.5,230.8L389.5,230.8z"/>
		<path class="st2" d="M216.5,448.1c-4.4-0.3-7.8-4-7.5-8.4c0,0,0,0,0,0l0.9-15.7c0.1-1.5,0.1-2.9,0.1-4.4
			c0-19.1-7.3-37.6-20.4-51.5c-17.1-18.3-26-42.7-24.6-67.7l0.9-15.7c0.3-4.4,4-7.8,8.4-7.5c4.4,0.3,7.8,4,7.5,8.4l-0.9,15.7
			c-1.1,20.6,6.2,40.8,20.3,55.8c15.9,16.9,24.8,39.2,24.8,62.4c0,1.7-0.1,3.4-0.2,5.3l-0.9,15.7C224.7,445,220.9,448.4,216.5,448.1
			L216.5,448.1z"/>
	</g>
</g>
</svg>
