<?xml version="1.0" encoding="utf-8"?>
<!-- Generator: Adobe Illustrator 22.1.0, SVG Export Plug-In . SVG Version: 6.00 Build 0)  -->
<svg version="1.1" id="Layer_1" xmlns="http://www.w3.org/2000/svg" xmlns:xlink="http://www.w3.org/1999/xlink" x="0px" y="0px"
	 viewBox="0 0 512 512" style="enable-background:new 0 0 512 512;" xml:space="preserve">
<style type="text/css">
	.st0{fill:#CDCDCD;}
	.st1{fill:#D9D9D9;}
	.st2{fill:#A8A8A8;}
	.st3{fill:#744630;}
	.st4{fill:#E2939D;}
	.st5{fill:#ED747E;}
	.st6{fill:#F4B56B;}
	.st7{fill:#B9B9B9;}
</style>
<g>
	<path class="st0" d="M321.8,418.7h-19.1c-4.2,0-7.6-3.4-7.6-7.6c0-0.5,0.1-1.1,0.2-1.5l7.6-38.1c0.8-3.5,3.8-6.1,7.5-6.1h11.5
		c14.7,0,26.7,11.9,26.7,26.7C348.5,406.7,336.5,418.7,321.8,418.7z M302.7,403.4h19.1c6.3,0,11.5-5.2,11.5-11.5
		s-5.2-11.5-11.5-11.5h-19.1V403.4z"/>
	<path class="st1" d="M256.9,441.5c-29.5,0-53.4-23.9-53.4-53.4v-22.8h106.9v22.8C310.4,417.6,286.5,441.5,256.9,441.5z"/>
	<path class="st2" d="M211.1,174.4v45.8l22.8,15.3l7.6,22.9H272l7.6-22.9l22.8-15.3v-45.8H211.1L211.1,174.4z"/>
	<path class="st3" d="M256.9,289.7l-16.7,28c-3.6,6-2.7,13.7,2.3,18.6c8,8,20.9,8,28.9,0l0,0c5-5,5.9-12.6,2.3-18.6L256.9,289.7z"/>
	<path class="st4" d="M310.4,113.5H203.5l5.7-63.1c1.1-11.8,11-20.8,22.8-20.8h49.7c11.9,0,21.7,9,22.8,20.8L310.4,113.5z"/>
	<path class="st5" d="M272.2,105.8h-30.5V67.7c0-4.2,3.4-7.6,7.6-7.6h15.3c4.2,0,7.6,3.4,7.6,7.6V105.8L272.2,105.8z"/>
	<path class="st6" d="M311.9,161.6c-7.9-3.7-14.1-10.4-17.2-18.6c-4.8-9.5-7.2-19.9-7.2-30.5c0-3.7-3.1-6.8-6.9-6.8h-47.3
		c-3.7,0-6.9,3-6.9,6.8c0,10.6-2.5,21-7.2,30.5c-3.2,8.2-9.3,14.8-17.2,18.6c-55.1,26.9-90,82.7-90,143.9v174.1h290v-174
		C401.9,244.3,366.9,188.5,311.9,161.6z M371.4,441.5H142.5v-141c0-63.2,51.2-114.4,114.4-114.4s114.4,51.2,114.4,114.4L371.4,441.5
		L371.4,441.5z"/>
	<g>
		<path class="st7" d="M345.7,82.9h-66c-8.4,0-15.3,6.8-15.3,15.3s6.8,15.3,15.3,15.3h61.5c24.2,0,47.4,9.7,64.5,26.7
			c17.1,17.1,26.7,40.3,26.7,64.5V434c0,8.4,6.8,15.3,15.3,15.3c8.4,0,15.3-6.8,15.3-15.3V200.2c0-31.1-12.3-60.9-34.3-82.9
			C406.6,95.2,376.9,82.9,345.7,82.9z"/>
		<path class="st7" d="M168.1,82.9h66c8.4,0,15.3,6.8,15.3,15.3s-6.8,15.3-15.3,15.3h-61.5c-24.2,0-47.4,9.7-64.5,26.7
			c-17.1,17.1-26.7,40.3-26.7,64.5V434c0,8.4-6.8,15.3-15.3,15.3s-15.3-6.8-15.3-15.3V200.2c0-31.1,12.3-60.9,34.3-82.9
			C107.2,95.2,137.1,82.9,168.1,82.9z"/>
	</g>
</g>
</svg>
