<?xml version="1.0"?>
<svg xmlns="http://www.w3.org/2000/svg" id="Layer_1" enable-background="new 0 0 512.27 512.27" height="512px" viewBox="0 0 512.27 512.27" width="512px"><g><g><path d="m208.298 303.949h-133.476c-8.284 0-15 6.716-15 15v76.06c0 8.284 6.716 15 15 15h133.476c8.284 0 15-6.716 15-15v-76.06c0-8.284-6.716-15-15-15zm-15 76.06h-103.476v-46.06h103.476z" data-original="#000000" class="active-path" data-old_color="#000000" fill="#374957"/><path d="m208.571 244.281h-133.749c-8.284 0-15 6.716-15 15s6.716 15 15 15h133.75c8.284 0 15-6.716 15-15s-6.717-15-15.001-15z" data-original="#000000" class="active-path" data-old_color="#000000" fill="#374957"/><path d="m491.342 330.142v-314.855c0-8.284-6.716-15-15-15h-461.342c-8.284 0-15 6.716-15 15v439.599c0 8.284 6.716 15 15 15h292.532c21.218 25.694 53.305 42.097 89.152 42.097 63.734 0 115.586-51.853 115.586-115.587 0-24.629-7.748-47.48-20.928-66.254zm-30-228.187h-147.333v-71.668h147.333zm-177.333-71.668v71.668h-78.655v-71.668zm-78.655 101.668h78.655v46.555h-78.655zm-30-101.668v71.668h-145.354v-71.668zm-145.354 409.599v-307.931h145.354v61.555c0 8.284 6.716 15 15 15h108.655c8.284 0 15-6.716 15-15v-61.555h147.333v168.676c-18.466-12.508-40.724-19.821-64.658-19.821-63.734 0-115.586 51.852-115.586 115.586 0 15.377 3.026 30.058 8.501 43.49zm366.684 42.097c-47.192 0-85.586-38.395-85.586-85.587s38.394-85.586 85.586-85.586 85.586 38.394 85.586 85.586-38.394 85.587-85.586 85.587z" data-original="#000000" class="active-path" data-old_color="#000000" fill="#374957"/><path d="m427.079 359.832-41.307 41.308-19.483-19.483c-5.858-5.859-15.355-5.857-21.213 0s-5.858 15.355 0 21.213l30.089 30.09c4.918 4.967 14.885 6.333 21.213 0l51.914-51.914c5.858-5.857 5.858-15.355 0-21.213s-15.356-5.858-21.213-.001z" data-original="#000000" class="active-path" data-old_color="#000000" fill="#374957"/></g></g> </svg>
