<svg xmlns="http://www.w3.org/2000/svg" width="11.078" height="11.103" viewBox="0 0 11.078 11.103">
  <g id="sort" transform="translate(-0.532)" opacity="0.6">
    <g id="Group_285" data-name="Group 285" transform="translate(0.533 0)">
      <path id="Path_310" data-name="Path 310" d="M6.448,53.627a.478.478,0,0,0-.66.048L4.041,55.643v-7.87a.472.472,0,0,0-.944,0v7.87L1.351,53.674a.48.48,0,0,0-.66-.048.48.48,0,0,0-.048.66l2.573,2.879a.438.438,0,0,0,.685,0l2.6-2.879A.476.476,0,0,0,6.448,53.627Z" transform="translate(-0.533 -46.229)" fill="#fff"/>
      <path id="Path_311" data-name="Path 311" d="M227.1,3.056,224.546.177a.442.442,0,0,0-.708,0l-2.6,2.879a.478.478,0,0,0,.048.66.455.455,0,0,0,.66-.048L223.7,1.7V9.546a.474.474,0,0,0,.472.472.454.454,0,0,0,.472-.449V1.7l1.747,1.969a.469.469,0,1,0,.708-.615Z" transform="translate(-216.128 0)" fill="#fff"/>
    </g>
  </g>
</svg>
