<?xml version="1.0"?>
<svg xmlns="http://www.w3.org/2000/svg" xmlns:xlink="http://www.w3.org/1999/xlink" version="1.1" id="Capa_1" x="0px" y="0px" viewBox="0 0 512 512" style="enable-background:new 0 0 512 512;" xml:space="preserve" width="512px" height="512px" class=""><g><g>
	<g>
		<path d="M506.442,172.948L457.211,10.486C455.325,4.258,449.584,0,443.077,0H68.923c-6.507,0-12.248,4.258-14.134,10.486    L5.558,172.948c-0.421,1.389-0.635,2.832-0.635,4.283c0,29.688,17.619,55.324,42.942,67.043c0.309,0.143,0.619,0.283,0.93,0.421    c0.854,0.381,1.715,0.744,2.585,1.094c0.399,0.16,0.797,0.32,1.199,0.474c0.513,0.195,1.027,0.386,1.545,0.57    c0.661,0.235,1.326,0.46,1.996,0.676c0.535,0.173,1.073,0.338,1.614,0.498c0.588,0.175,1.18,0.344,1.773,0.505    c0.392,0.106,0.782,0.217,1.177,0.316c0.894,0.226,1.796,0.432,2.703,0.625c0.358,0.076,0.717,0.149,1.077,0.22    c0.967,0.191,1.938,0.369,2.917,0.522c0.203,0.031,0.409,0.056,0.612,0.087c0.916,0.135,1.837,0.251,2.764,0.353    c0.244,0.027,0.488,0.056,0.734,0.08c1.056,0.104,2.12,0.184,3.189,0.243c0.234,0.013,0.469,0.023,0.704,0.032    c1.122,0.052,2.249,0.087,3.385,0.087c8.294,0,16.274-1.375,23.722-3.908c3.386-1.152,6.662-2.542,9.808-4.152    c0.629-0.322,1.253-0.653,1.872-0.992c2.474-1.358,4.864-2.852,7.156-4.475c0.573-0.406,1.14-0.819,1.701-1.241    c5.61-4.214,10.603-9.207,14.816-14.817c4.214,5.61,9.207,10.603,14.817,14.817c0.561,0.421,1.128,0.835,1.701,1.241    c2.293,1.623,4.682,3.117,7.156,4.475c0.618,0.34,1.243,0.67,1.872,0.992c3.146,1.61,6.423,3.001,9.808,4.152    c7.451,2.533,15.43,3.908,23.724,3.908c8.294,0,16.274-1.375,23.722-3.908c3.386-1.152,6.662-2.542,9.808-4.152    c0.629-0.322,1.253-0.653,1.872-0.992c2.474-1.358,4.864-2.852,7.156-4.475c0.573-0.406,1.14-0.819,1.701-1.241    c5.61-4.214,10.603-9.207,14.816-14.817c4.214,5.61,9.207,10.603,14.816,14.817c0.561,0.421,1.128,0.835,1.701,1.241    c2.293,1.623,4.682,3.117,7.156,4.475c0.618,0.34,1.243,0.67,1.872,0.992c3.146,1.61,6.423,3.001,9.808,4.152    c7.451,2.533,15.43,3.908,23.724,3.908c8.294,0,16.274-1.375,23.722-3.908c3.386-1.152,6.662-2.542,9.808-4.152    c0.629-0.322,1.253-0.653,1.872-0.992c2.474-1.358,4.864-2.852,7.156-4.475c0.573-0.406,1.14-0.819,1.701-1.241    c5.61-4.214,10.603-9.207,14.816-14.817c4.214,5.61,9.207,10.603,14.817,14.817c0.561,0.421,1.128,0.835,1.701,1.241    c2.293,1.623,4.682,3.117,7.156,4.475c0.618,0.34,1.243,0.67,1.872,0.992c3.146,1.61,6.423,3.001,9.808,4.152    c7.451,2.533,15.43,3.908,23.724,3.908c1.136,0,2.264-0.034,3.386-0.086c0.234-0.011,0.47-0.02,0.704-0.033    c1.069-0.059,2.133-0.139,3.19-0.243c0.245-0.024,0.488-0.053,0.734-0.08c0.927-0.1,1.848-0.218,2.764-0.352    c0.204-0.03,0.41-0.054,0.612-0.087c0.98-0.153,1.951-0.331,2.917-0.522c0.359-0.071,0.719-0.144,1.077-0.22    c0.907-0.193,1.809-0.399,2.703-0.625c0.395-0.099,0.785-0.211,1.177-0.316c0.594-0.161,1.185-0.329,1.773-0.505    c0.541-0.16,1.078-0.325,1.614-0.498c0.67-0.217,1.335-0.442,1.996-0.676c0.518-0.184,1.033-0.375,1.545-0.57    c0.402-0.154,0.8-0.313,1.199-0.474c0.87-0.349,1.732-0.713,2.585-1.094c0.311-0.139,0.621-0.279,0.93-0.421    c25.321-11.721,42.94-37.356,42.94-67.044C507.077,175.779,506.863,174.337,506.442,172.948z" data-original="#000000" class="active-path" data-old_color="#000000" fill="#D7D7FF"/>
	</g>
</g><g>
	<g>
		<rect x="132.923" y="369.231" width="88.615" height="142.769" data-original="#000000" class="active-path" data-old_color="#000000" fill="#D7D7FF"/>
	</g>
</g><g>
	<g>
		<rect x="310.154" y="310.154" width="68.923" height="49.231" data-original="#000000" class="active-path" data-old_color="#000000" fill="#D7D7FF"/>
	</g>
</g><g>
	<g>
		<path d="M433.231,280.615c-16.289,0-32.538-3.909-46.988-11.303c-4.185-2.142-8.227-4.578-12.089-7.279    c-3.863,2.701-7.905,5.138-12.089,7.279c-14.45,7.394-30.698,11.303-46.988,11.303h78.769c8.157,0,14.769,6.613,14.769,14.769    v78.769c0,8.157-6.613,14.769-14.769,14.769h-98.461c-8.157,0-14.769-6.613-14.769-14.769v-78.769    c0-8.157,6.613-14.769,14.769-14.769h19.692c-16.289,0-32.538-3.909-46.988-11.303c-4.185-2.142-8.227-4.578-12.089-7.279    c-3.863,2.701-7.904,5.138-12.089,7.279c-14.45,7.394-30.698,11.303-46.988,11.303s-32.538-3.909-46.988-11.303    c-4.185-2.142-8.227-4.578-12.089-7.279c-3.863,2.701-7.904,5.138-12.089,7.279c-14.45,7.394-30.698,11.303-46.988,11.303    c-12.079,0-23.677-2.089-34.462-5.914v222.529c0,8.157,6.613,14.769,14.769,14.769h44.308V354.462    c0-8.157,6.613-14.769,14.769-14.769h118.154c8.157,0,14.769,6.613,14.769,14.769V512h201.846c8.157,0,14.769-6.613,14.769-14.769    V274.702C456.908,278.526,445.31,280.615,433.231,280.615z" data-original="#000000" class="active-path" data-old_color="#000000" fill="#D7D7FF"/>
	</g>
</g></g> </svg>
