<?xml version="1.0"?>
<svg xmlns="http://www.w3.org/2000/svg" id="Capa_1" enable-background="new 0 0 512 512" height="512px" viewBox="0 0 512 512" width="512px" class=""><g><g><path d="m512 347.394-46.496-21.459-28.172-73.949h-105.344v-32.399l1.796-1.796c20.777-20.775 32.22-48.4 32.22-77.784 0-60.656-49.348-110.004-110.004-110.004s-110.004 49.347-110.004 110.003c0 14.639 2.841 28.84 8.26 41.976h-154.256v270.015h62.584c6.192 17.46 22.866 30.002 42.422 30.002s36.229-12.542 42.421-30.002h217.145c6.192 17.46 22.866 30.002 42.422 30.002s36.23-12.542 42.422-30.002h62.584zm-80.102-25.404h-39.906v-40.005h24.666zm-175.898-261.988c44.114 0 80.004 35.89 80.004 80.004 0 21.37-8.322 41.461-23.433 56.571l-56.571 56.572-56.572-56.572c-15.11-15.11-23.432-35.2-23.432-56.571 0-44.114 35.89-80.004 80.004-80.004zm-226 151.979h142.806c1.726 1.989 3.528 3.928 5.409 5.809l77.785 77.785 45.988-45.989v172.41h-154.561c-6.192-17.46-22.866-30.002-42.421-30.002s-36.23 12.542-42.422 30.002h-32.584zm75.006 240.017c-8.272 0-15.002-6.729-15.002-15.002s6.73-15.002 15.002-15.002 15.001 6.729 15.001 15.002-6.729 15.002-15.001 15.002zm301.988 0c-8.272 0-15.002-6.729-15.002-15.002s6.729-15.002 15.002-15.002 15.002 6.729 15.002 15.002-6.729 15.002-15.002 15.002zm75.006-30.002h-32.584c-6.192-17.46-22.866-30.002-42.422-30.002s-36.23 12.542-42.422 30.002h-32.584v-140.011h30.004v70.005h88.378l31.63 14.599z" data-original="#000000" class="active-path" data-old_color="#000000" fill="#374957"/><path d="m256 190.01c27.571 0 50.002-22.431 50.002-50.002s-22.431-50.002-50.002-50.002-50.002 22.431-50.002 50.002 22.431 50.002 50.002 50.002zm0-70.004c11.029 0 20.002 8.973 20.002 20.002s-8.973 20.002-20.002 20.002-20.002-8.973-20.002-20.002 8.973-20.002 20.002-20.002z" data-original="#000000" class="active-path" data-old_color="#000000" fill="#374957"/></g></g> </svg>
